<svg width="45" height="40" viewBox="0 0 45 40" fill="none" xmlns="http://www.w3.org/2000/svg">
<path d="M44.3134 12.7192C44.1117 2.64877 31.823 -4.77285 22.1579 3.67833C12.4994 -4.7674 0.204226 2.64383 0.0025045 12.7192C-0.0714312 16.4105 1.49291 19.9645 4.52618 22.9971C4.5344 23.0058 10.6833 29.1209 21.2418 39.622C21.7484 40.126 22.5673 40.126 23.0741 39.622L39.7897 22.9971C42.823 19.9646 44.3872 16.4105 44.3134 12.7192ZM22.1579 36.8696L7.89579 22.6848H12.459C12.9153 22.6848 13.3381 22.4454 13.5728 22.0544L14.5698 20.3932L18.2909 26.239C18.8381 27.099 20.1231 27.0212 20.5606 26.0977L25.696 15.2593L29.3275 22.0019C29.554 22.4225 29.9932 22.6849 30.4711 22.6849H36.4199L22.1579 36.8696ZM38.9327 20.0876H31.2471L26.7655 11.7667C26.2631 10.8339 24.9045 10.8628 24.448 11.8264L19.2198 22.8607L15.6332 17.2261C15.1103 16.4041 13.9158 16.4351 13.4236 17.2551L11.7237 20.0876H5.38345C3.50718 17.8316 2.54879 15.3261 2.59986 12.7712C2.76202 4.67369 13.084 -1.7788 21.2395 6.37456C21.7463 6.88129 22.5693 6.88172 23.0764 6.37456C33.4892 -4.03583 47.8044 9.42185 38.9327 20.0876Z" fill="#076CEC"/>
</svg>
