<svg width="198" height="42" viewBox="0 0 198 42" fill="none" xmlns="http://www.w3.org/2000/svg">
<path d="M45.9974 13.2025C45.7881 2.74943 33.0323 -4.95423 23 3.81811C12.9744 -4.94857 0.211987 2.74431 0.00259968 13.2025C-0.0741458 17.0341 1.54964 20.7232 4.69818 23.8711C4.70672 23.88 11.0893 30.2275 22.049 41.1277C22.5749 41.6508 23.4249 41.6509 23.951 41.1277L41.3018 23.8711C44.4503 20.7233 46.074 17.0341 45.9974 13.2025ZM23 38.2707L8.19585 23.5469H12.9325C13.4061 23.5469 13.845 23.2984 14.0886 22.8925L15.1235 21.1682L18.986 27.2362C19.554 28.1288 20.8878 28.0481 21.342 27.0895L26.6725 15.8392L30.442 22.838C30.6771 23.2746 31.133 23.547 31.6291 23.547H37.804L23 38.2707ZM40.4122 20.8509H32.4346L27.7827 12.2138C27.2612 11.2456 25.8509 11.2756 25.377 12.2758L19.9502 23.7294L16.2273 17.8807C15.6846 17.0275 14.4446 17.0597 13.9337 17.9108L12.1692 20.851H5.58803C3.64046 18.5092 2.64564 15.9085 2.69867 13.2565C2.86698 4.8513 13.5812 -1.8464 22.0466 6.61681C22.5727 7.14279 23.4269 7.14324 23.9534 6.61681C34.7618 -4.18921 49.621 9.7799 40.4122 20.8509Z" fill="white"/>
<path d="M56.9805 8.71307H64.8171L71.4648 24.9233H71.7717L78.4194 8.71307H86.256V34.8949H80.0941V18.8125H79.8768L73.587 34.7287H69.6495L63.3597 18.723H63.1424V34.8949H56.9805V8.71307Z" fill="white"/>
<path d="M99.3821 35.2656C97.3281 35.2656 95.5554 34.8608 94.0639 34.0511C92.581 33.233 91.4389 32.0696 90.6378 30.5611C89.8452 29.044 89.4489 27.2415 89.4489 25.1534C89.4489 23.125 89.8494 21.3523 90.6506 19.8352C91.4517 18.3097 92.581 17.125 94.0384 16.2812C95.4957 15.429 97.2131 15.0028 99.1903 15.0028C100.588 15.0028 101.866 15.2202 103.026 15.6548C104.185 16.0895 105.186 16.733 106.03 17.5852C106.874 18.4375 107.53 19.4901 107.999 20.7429C108.467 21.9872 108.702 23.4148 108.702 25.0256V26.5852H91.6349V22.9545H102.885C102.876 22.2898 102.719 21.6974 102.412 21.1776C102.105 20.6577 101.683 20.2528 101.146 19.9631C100.618 19.6648 100.009 19.5156 99.3182 19.5156C98.6193 19.5156 97.9929 19.6733 97.4389 19.9886C96.8849 20.2955 96.446 20.7173 96.1222 21.2543C95.7983 21.7827 95.6278 22.3835 95.6108 23.0568V26.7514C95.6108 27.5526 95.7685 28.2557 96.0838 28.8608C96.3991 29.4574 96.8466 29.9219 97.4261 30.2543C98.0057 30.5866 98.696 30.7528 99.4972 30.7528C100.051 30.7528 100.554 30.6761 101.006 30.5227C101.457 30.3693 101.845 30.1435 102.169 29.8452C102.493 29.5469 102.736 29.1804 102.898 28.7457L108.638 28.9119C108.399 30.1989 107.875 31.3196 107.065 32.2741C106.264 33.2202 105.212 33.9574 103.908 34.4858C102.604 35.0057 101.095 35.2656 99.3821 35.2656Z" fill="white"/>
<path d="M119.066 35.1761C117.618 35.1761 116.301 34.8011 115.116 34.0511C113.931 33.3011 112.985 32.1761 112.278 30.6761C111.571 29.1761 111.217 27.3139 111.217 25.0895C111.217 22.7798 111.583 20.8793 112.316 19.3878C113.049 17.8963 114.008 16.7926 115.193 16.0767C116.386 15.3608 117.669 15.0028 119.041 15.0028C120.072 15.0028 120.954 15.1818 121.687 15.5398C122.42 15.8892 123.025 16.3409 123.502 16.8949C123.98 17.4489 124.342 18.0241 124.589 18.6207H124.717V8.71307H130.968V34.8949H124.781V31.7116H124.589C124.325 32.3168 123.95 32.8835 123.464 33.4119C122.978 33.9403 122.369 34.3665 121.636 34.6903C120.912 35.0142 120.055 35.1761 119.066 35.1761ZM121.24 30.3054C121.998 30.3054 122.646 30.0923 123.183 29.6662C123.72 29.2315 124.133 28.6222 124.423 27.8381C124.713 27.054 124.858 26.1335 124.858 25.0767C124.858 24.0028 124.713 23.0781 124.423 22.3026C124.142 21.527 123.728 20.9304 123.183 20.5128C122.646 20.0952 121.998 19.8864 121.24 19.8864C120.464 19.8864 119.808 20.0994 119.271 20.5256C118.734 20.9517 118.325 21.5526 118.044 22.3281C117.771 23.1037 117.635 24.0199 117.635 25.0767C117.635 26.1335 117.775 27.054 118.056 27.8381C118.338 28.6222 118.743 29.2315 119.271 29.6662C119.808 30.0923 120.464 30.3054 121.24 30.3054Z" fill="white"/>
<path d="M134.922 34.8949V15.2585H141.173V34.8949H134.922ZM138.054 12.9702C137.176 12.9702 136.422 12.6804 135.791 12.1009C135.161 11.5128 134.845 10.8054 134.845 9.97869C134.845 9.16051 135.161 8.46165 135.791 7.8821C136.422 7.29403 137.176 7 138.054 7C138.94 7 139.695 7.29403 140.317 7.8821C140.947 8.46165 141.263 9.16051 141.263 9.97869C141.263 10.8054 140.947 11.5128 140.317 12.1009C139.695 12.6804 138.94 12.9702 138.054 12.9702Z" fill="white"/>
<path d="M154.907 15.2585V18.3267H144.181V15.2585H154.907ZM147.057 10.554H150.88V29.1293C150.88 29.8707 150.99 30.429 151.212 30.804C151.434 31.1705 151.719 31.4219 152.069 31.5582C152.426 31.6861 152.814 31.75 153.232 31.75C153.539 31.75 153.807 31.7287 154.037 31.6861C154.267 31.6435 154.446 31.6094 154.574 31.5838L155.265 34.7415C155.043 34.8267 154.728 34.9119 154.319 34.9972C153.909 35.0909 153.398 35.142 152.784 35.1506C151.779 35.1676 150.841 34.9886 149.972 34.6136C149.103 34.2386 148.4 33.6591 147.863 32.875C147.326 32.0909 147.057 31.1065 147.057 29.9219V10.554Z" fill="white"/>
<path d="M167.387 35.2912C165.452 35.2912 163.786 34.8778 162.388 34.0511C160.999 33.2159 159.925 32.044 159.167 30.5355C158.417 29.0185 158.042 27.2415 158.042 25.2045C158.042 23.1932 158.417 21.4205 159.167 19.8864C159.925 18.3523 160.982 17.1548 162.337 16.294C163.701 15.4332 165.295 15.0028 167.119 15.0028C168.227 15.0028 169.3 15.1861 170.34 15.5526C171.38 15.919 172.313 16.4943 173.14 17.2784C173.967 18.0625 174.619 19.081 175.096 20.3338C175.573 21.5781 175.812 23.0909 175.812 24.8722V26.2273H160.202V23.3636H172.066C172.066 22.358 171.862 21.4673 171.452 20.6918C171.043 19.9077 170.468 19.2898 169.727 18.8381C168.994 18.3864 168.133 18.1605 167.144 18.1605C166.07 18.1605 165.133 18.4247 164.332 18.9531C163.539 19.473 162.925 20.1548 162.491 20.9986C162.065 21.8338 161.852 22.7415 161.852 23.7216V25.9588C161.852 27.2713 162.082 28.3878 162.542 29.3082C163.011 30.2287 163.663 30.9318 164.498 31.4176C165.333 31.8949 166.309 32.1335 167.425 32.1335C168.15 32.1335 168.81 32.0313 169.407 31.8267C170.004 31.6136 170.519 31.2983 170.954 30.8807C171.388 30.4631 171.721 29.9474 171.951 29.3338L175.569 29.9858C175.279 31.0511 174.759 31.9844 174.009 32.7855C173.268 33.5781 172.335 34.196 171.21 34.6392C170.093 35.0739 168.819 35.2912 167.387 35.2912Z" fill="white"/>
<path d="M183.569 28.2344L183.543 23.5682H184.208L192.032 15.2585H196.608L187.685 24.7188H187.084L183.569 28.2344ZM180.053 34.8949V8.71307H183.875V34.8949H180.053ZM192.453 34.8949L185.422 25.5625L188.056 22.8906L197.145 34.8949H192.453Z" fill="white"/>
</svg>
